<?xml version="1.0" encoding="UTF-8"?>
<svg viewBox="0 0 1023.3063 1023.3063" xmlns="http://www.w3.org/2000/svg">
 <path transform="matrix(.70711 .70711 -.70711 .70711 174.95 -18.589)" d="m280.75-231.82h664.55a36.398 36.398 0 0 1 36.398 36.398v664.55a36.398 36.398 0 0 1 -36.398 36.398h-664.55a36.398 36.398 0 0 1 -36.398 -36.398v-664.55a36.398 36.398 0 0 1 36.398 -36.398" fill="#ff0" stroke="#000" stroke-linecap="round" stroke-linejoin="round" stroke-width="10.63"/>
 <g transform="translate(157.01 -15.829)">
  <path d="m231.72 321.51-33.255 24.732c-8.5079 7.7583-11.626 16.788-14.317 25.919 0 0-15.874 58.611-12.328 88.026 0.55536 4.6073 5.1519 12.934 5.1519 12.934 12.045 15.901 32.993 18.746 53.999 16.488l14.892-3.5181 13.031-4.0742 19.237-7.532-16.718-0.6626c3.0565-7.5264 4.6464-16.68 5.5662-26.577l-35.916-4.7226-8.153-18.095 7.3924-22.396c1.2991 5.2672-0.0856 9.667-3.4412 22.039 1.2359 7.3744 3.0943 9.7949 6.8158 15.318l33.891 6.3541c15.429-7.8955 15.589-4.2653 22.894-7.138 4.7528 0.13101 10.871 0.0884 16.064 1.3675 2.8566 0.70353 5.115 2.0039 7.4598 3.4911 14.119 3.461-4.4882 8.6257-7.423 2.8673-5.3378 1.3907-9.2278 0.92234-12.959-1.0099l15.887 7.4991 10.749 9.4109c-0.84899 3.1034-3.1196 3.7703-7.2728 2.3466-2.3256-1.8868-5.0546-4.1857-6.9897-6.914-4.0046-1.9474-10.835-3.3842-16.078-5.2465l14.463 6.4175 10.345 11.623c-3.0028 2.813-4.925 5.8237-14.301-5.9528-4.0781 0.28917-8.3999-2.1199-12.635-3.5664 0.53028 2.7093 9.6165 7.0908 10.706 9.1295 2.2231 1.7655 4.0216 4.1948 3.651 5.5902-1.0861 4.0897-4.5254 4.0046-7.0628-0.77028l-8.0499-6.2763c-4.8952-4.2437-5.7017 2.1047-8.3613 3.6524l-41.677 19.699c-16.59 21.692-15.455 27.548-16.674 35.909-3.7587 18.956-8.3358 37.72-9.3063 57.334 0.0794 6.5068-2.5951 21.464 5.8054 12.15l9.8027-11.75c3.5022 8.8871 7.3082 12.992 18.864 16.403 6.109 5.2693 12.132 10.608 23.504 11.638 20.531 0.82087 19.328-10.515 21.367-20.037 25.952-22.467 16.213-59.264 20.329-85.77 0 0 13.564-28.106 13.175-32.416s1.9878-50.154 1.9878-50.154c-38.721-26.225-40.853-36.815-55.84-52.898-4.019-4.3129-7.0268-16.84-22.352-26.952-1.3987-7.0654-9.4913-16.042-15.921-23.911z" stroke="#000"/>
  <path d="m298.02 336.33c0.0821-12.88 4.9058-18.091 9.6647-23.407 13.291 0.83758 28.27-2.1424 39.063 7.2262 6.5435 0.36208 12.151 4.6932 17.727 9.1535 4.21-0.6405 8.3174-2.4166 13.113 3.4247 4.1279-3.4384 8.6897-2.0742 13.3-0.17712l20.559-16.197c8.9977 6.7115 6.2689 22.137 8.8002 35.055 1.1026 1.9934 2.8439 4.3474 5.1662 4.8789l6.3735 3.8093c3.8186 0.94631 8.7787-6.4636 13.857-5.3488 0.80851 2.2212 3.1959 2.55-0.60621 10.298l-13.349 5.303-13.08 19.619c-7.8199 4.1439-13.724 6.8214-21.663 9.639-6.8719 3.2992-14.752-4.5671-22.437-10.264l-14.45-6.8889-7.574 1.1963c1.8847 4.3888 6.3586 8.714 6.3616 19.399 5.6938 6.6072 11.359 9.1286 17.161 31.227 2.1906 9.3521 0.69732 17.26 0.26248 25.583l27.55 32.849 23.761 36.264c-24.779-0.25159-35.283-15.891-48.194-28.935l-73.123 20.091c8.8296-31.698 16.44-64.93 17.439-109.29-0.3974-5.3218-1.4601-15.787-1.2696-24.98 0.094-4.5348 0.91329-5.7325 0.45442-8.5898-0.80039-4.9839-4.0973-7.6491-6.3337-12.944-4.1377-9.7963-9.0126-21.995-18.533-27.989z"/>
  <path d="m291.5 591.28c15.776 43.018 54.108 62.441 54.108 62.441 1.8791 11.57 0.66358 13.706-0.93481 18.168-2.0622 5.7567-0.4881 10.457-0.46131 13.951-11.963 16.796-6.2065 31.516-9.8376 36.463-11.917 21.202-7.278 33.007-3.3957 65.487 0 0 49.678 16.045 50.604 15.723s4.414-1.3538 3.5324-3.1841-3.716-14.706-3.0911-15.717 3.6897-14.659 3.6897-14.659c6.4777-6.9732 6.1151-25.875 4.7176-42.924-0.12325-1.5033 19.027-30.662 17.888-34.564-0.29579-1.0133 3.3659-6.6739 5.9069-10.17 6.52-8.97 16.505-25.572 7.6572-29.972-13.257-21.851-27.868-42.865-45.927-61.747l-8.5594-15.462 11.122 14.753 9.2957 7.7554 31.232 10.071s4.324 5.5782 4.8832 6.4828-0.41096 3.3797 1.4179 5.1245 4.0856 8.2261 5.0971 8.851 5.612 11.908 5.612 11.908c-1.2034 1.856 2.4591 17.665 8.2754 17.775 4.9455 0.0929 4.95 6.7369 5.2955 5.5911 0.65952-2.187 9.3022 28.77 11.415 28.574 1.4273-0.13296 27.619 35.211 26.349 40.596 2.0058 10.662 5.406 16.658 11.316 14.258 14.188-14.731 19.339-33.832 42.565-44.194 0 0 1.1886-7.9862 0.3055-7.1902s-8.1987-6.1832-8.1987-6.1832l-4.2812-5.1046s-20.099-33.325-19.637-32.368c0.73182 1.5145-2.7049-4.3277-4.5894-12.604-2.1876-9.608-3.5379-22.223-6.0252-22.966 0 0 0.94474-10.283 1.3354-1.0757 0.0336 0.79177-7.5124-7.6332-7.7933-17.737-0.5539-19.92-11.17-27.534-21.24-34.077-12.125-7.8776-26.015-19.355-27.803-19.693-13.178-16.2-32.846-19.012-47.776-29.349 0 0-14.37-18.996-16.245-15.962-1.7362 2.8103-35.14 10.098-35.14 10.098s-33.692 10.754-34.365 10.744c-4.5383-0.0675-8.3039 27.252-7.8087 27.207 4.3039 8.9226 3.2526 18.329 1.3189 27.815l-11.829 17.065z" stroke="#fff" stroke-linecap="round" stroke-linejoin="round"/>
  <path d="m231.29 275.59c-0.22796-0.65471-0.98327-10.885-0.98327-10.885-2.0682-3.4547-10.804-13.801-5.6042-22.792 2e-4 -0.42911 11.026-20.615 20.244-22.594 18.524-3.9767 34.617-1.7765 34.617-1.7765 11.296 3.4426 10.979 8.4688 13.008 13.175l0.36199 5.8762c7.6777 7.7343 6.7332 10.142 7.1166 13.37 5.2893 5.4096 12.612 4.8165 16.923 7.9254 18.601 13.415-7.1248 36.996-6.7476 33.699 0.0226-0.1971-2.3617-14.83-5.7122-20.249 0 0-12.779-14.377-49.051 6.4569-0.60116 0.34529-21.015 14.054-21.015 14.054-2.4671 3.9874-2.6106 6.7928-3.0044 9.7256l-3.6095 3.0272c-1.8411-0.52999-3.4398 0.83693-6.7525-11.208l2.5907-4.9611c3.4318-6.6398 10.326-13.1 16.802-19.582l11.65-7.4677c15.73-7.3108 27.023-5.1163 40.589-8.5624 1.5985-0.81277-21.137 0.47695-33.933 3.7406-4.121 1.1867-8.699 2.5509-13.4 6.7817-5.07 3.008-9.6179 7.5152-14.088 12.246z" stroke="#000"/>
  <path d="m499.95 746.9c5.5713 7.4086 8.7804 18.491 15.921 17.662 3.5312 2.0885 6.7978 1.2478 9.9893-0.42486 5.6438-4.8074 12.648-9.7377 13.528-14.115l-1.8488-4.6081c17.176-8.9549 37.671-12.148 46.435-35.71 4.7357-15.558 9.346-14.158-2.5686-25.792-3.6002-1.9177-6.3793-0.077-8.0534 3.3538-6.8662 10.56-15.111 15.773-28.513 17.378l-6.0061-0.41247c-13.233 3.9183-26.141 25.768-38.883 42.668z"/>
  <path d="m333.7 791.06c-3.4458 8.6055-14.299 23.527-9.8869 29.203 0.0453 4.1023 2.458 6.4596 5.5431 8.3211 7.0371 2.3329 14.885 5.7653 19.084 4.2478l2.9815-3.9703c16.564 10.043 29.921 25.912 54.612 21.187 15.759-4.0184 16.952 0.6496 20.722-15.571-0.22713-4.0728-3.2421-5.4946-7.0437-5.147-12.59-0.39508-21.323-4.7414-29.645-15.369l-5.4709-7.2775c-12.402-5.4638-39.961-13.302-50.896-15.624z"/>
  <path d="m404.88 254.99c-4.9642 2.2975-9.4981 4.7602-10.985 8.6484 7.9858 8.7772 18.794 26.325 30.515 41.517 3.5327-1.3756 6.0472-2.912 7.4176-3.6823 4.1339-2.3237 8.7964-2.7609 6.4452 4.6578-2.0251 3.6549-4.4614 6.8864-6.1505 9.3726 2.8746 6.1461 8.9298 11.054 8.6891 22.094-0.0452 2.071 39.261 46.132 53.366 60.47 17.191-1.6911 28.066-16.091 29.726-24.985-16.668-21.359-26.662-34.218-52.984-61.586-2.4508-2.5483-5.5466-4.7931-8.5006-7.2647-6.988 0.0351-5.3161-4.1433-8.4959-5.4766-5.0159 5.7604-6.6384-8.0211-8.683-4.7694-2.1334 3.3929-4.075 1.2158-4.7904 0.80926-2.5355-1.441-3.8199-8.8602-6.7374-8.2398-8.9347 1.8999-6.1102-5.8246-8.6353-9.1038-6.1775-8.0222-13.685-14.75-20.196-22.462zm79.96 81.231 19.738 23.103c-5.1486 11.404-13.646 17.108-24.322 21.489l-20.398-22.977c9.7659-4.7107 18.611-11.957 24.982-21.615z" stroke="#000"/>
  <path d="m413.11 317.74c-1.056-1.2706-3.9284-24.38-2.7107-24.338l1.2257-3.4396c-1.6987 3.1953-1.1887 11.766 2.3703 27.757l-0.88529 0.0205z" fill="none" stroke="#000" stroke-linecap="round" stroke-linejoin="round"/>
  <path d="m446.59 353.89c-0.34578-0.99304 3.4199-4.6621 3.4199-4.6621" fill="none" stroke="#000"/>
  <path d="m424.58 275.35c4.9847-2.5478 8.9409-0.7658 11.054 10.397" fill="none" stroke="#000" stroke-linecap="round" stroke-linejoin="round"/>
  <path d="m434.44 278.42c9.1866-2.779 10.676 5.5162 11.224 15.161" fill="none" stroke="#000" stroke-linecap="round" stroke-linejoin="round"/>
  <path d="m446.62 289.74c2.9986-1.8805 5.433-0.45866 6.8795 8.1234" fill="none" stroke="#000" stroke-linecap="round" stroke-linejoin="round"/>
  <path d="m453.9 294.91c4.4742 1.6768 7.7422 4.0365 8.7276 8.0587" fill="none" stroke="#000" stroke-linecap="round" stroke-linejoin="round"/>
  <path d="m228.74 304.95 2.708 8.7178c2.1248 1.5152 1.7717 3.2542 1.9829 4.9423l-1.3978 1.5346c6.2122 5.8924 4.9928 6.7364 11.189-3.6995-1.0671-3.5714 1.1872-3.8007 3.5346-3.3921 1.1946-1.0468 0.68998-1.9402 0.25562-2.8398-5.496-3.8356-9.4385-10.308-9.8832-18.697-1.5706 1.1086-4.2121 3.9897-4.1031 10.328-1.9282 1.5225-2.0298 2.739-4.2861 3.1051z" stroke="#000"/>
  <path d="m247.87 335.35c6.8309 3.9916 13.506 8.1042 19.549 13.726l8.7981-1.819c2.3569 1.0223 9.7497-10.133 9.6567-9.3226-0.27153 2.366-3.8281 10.692-5.0282 10.953l-13.485 0.96207c-4.554-6.3062-12.597-9.9675-19.491-14.5z" stroke="#000"/>
  <path d="m271.76 281.7c4.7316 1.4657 3.9675 0.0187 15.883 1.4366l-0.0347 3.6245-15.848-5.0611z" stroke="#000" stroke-linecap="round" stroke-linejoin="round"/>
  <path d="m275.66 318.38c4.5778-3.9945 15.059-6.222 20.924-3.4864 1.7575 1.7372-0.0519 4.9298-0.0519 4.9298-5.4244-2.9524-9.2492-4.5135-16.465-0.0192-2.3436 3.7988-5.4845 2.3165-4.407-1.4243z" stroke="#000"/>
  <path d="m272.57 357.83c10.412 14.808 14.581 38.201 32.532 42.642l8.4982-2.3041-7.574 1.1963c-15.078-2.1046-25.877-28.775-33.456-41.534z" stroke="#000"/>
  <path d="m285.73 350.5s4.1034 11.408 5.1423 11.571 5.8962 5.159 7.8691 7.7394c1.731 2.2642 2.3975 6.6973 3.2742 7.8984s9.3669 12.982 9.3669 12.982l12.617 23.443-14.322-28.154s-7.2218-9.0783-7.5676-10.071-1.7732-8.2901-2.858-8.9603-6.4614-6.3302-7.5692-7.2544-3.5741-8.3835-3.5741-8.3835l-2.3777-0.80948z" stroke="#000"/>
  <path d="m256.49 321.64 12.254 10.928c2.6162 3.3387 8.7557 3.5802 14.383 3.31 0 0 10.597 1.0912 11.268 6e-3 0.67021-1.0848 2.9807-3.8542 2.9807-3.8542s-0.58445 3.3187-2.1499 4.5474c-1.8772 1.4734-6.5351 1.3585-6.5351 1.3585s-6.9956-0.90448-8.0345-1.0667-5.1258-0.0491-5.1258-0.0491c-7.5176-0.71089-13.39-9.3601-19.04-15.181z" fill="none" stroke="#000"/>
  <path d="m250.9 297.32c2.0986-1.4108 5.0125-1.5032 6.1088-4.5353l0.56298-13.812-13.346 8.5665 2.1039 7.2966-4.8342 2.6095 8.9084 10.422-3.7822-9.7982 1.993-1.9907c0.15209-3.0316 1.6576-6.1854-0.81121-8.9801l3.5272-1.0429-0.43091 11.265z" stroke="#000"/>
  <path d="m276.67 311.11 9.034-10.547 3.1176-0.92179-1.791 2.8505 4.4761 5.6133 4.0295-0.74811 0.14015-4.449 2.4948-0.39827-0.5384-7.3774-3.8878-4.7702s-1.1873-3.2216-1.1062-3.7411 5.025-5.3192 5.025-5.3192l5.7165-3.3332 4.2238 2.8193 0.22944 2.54-2.3425-1.837-4.1795 0.50559-3.9844 2.6646-0.59232 6.1992s3.2504 9.0529 3.4463 9.8034 1.8673 5.0807 1.3938 5.5076-3.0266 3.3462-3.0266 3.3462l-6.6613-0.0384-4.7555-1.619-1.8796-3.7993-4.5285 5.1464-4.0533 1.9026z" stroke="#000"/>
  <path d="m261.54 293.92 2.8882-3.4618 2.807-2.9423 6.0148-0.0312 4.227-2.8145 8.8186 2.6603 0.032 4.6064 3.0808 2.9226-4.0632-1.0414-3.4495-4.1696-4.6989 0.42447-2.5408 1.6379-4.7792-0.46452-2.8972-0.89059-1.2142 3.5666-4.2254-2e-3z"/>
  <path d="m299.37 286.02c1.3618 0.90126 7.574-1.1963 7.574-1.1963l3.9859 15.068c0.91115 3.4445-2.4993 9.8924-2.9155 10.954s-4.5752 6.0468-4.5752 6.0468c3.8189-7.1261 8.4806-11.954 7.0343-16.384 0.0795-2.3492-3.0538-9.7108-3.0538-9.7108l-2.7219 0.11785c0.44888-1.2574 0.63917-2.7981-0.082-2.7922-2.4677 0.0202-4.128-0.81793-2.7051 2.6117l-2.6587-0.35181 0.11793-4.3638z" stroke="#000" stroke-linecap="round" stroke-linejoin="round"/>
 </g>
</svg>
